<svg xmlns="http://www.w3.org/2000/svg" viewBox="0 0 32 32" fill="none">
  <path d="M16 2C16 2 10 8 10 14C10 17.3 11.8 19.5 13 20.5C12.8 19.2 13.5 17.5 14.5 16.5C14.3 19 15.5 20.8 16 21.5C16.5 20.8 17.8 18.5 17 16C18.5 17.5 19.2 19.5 19 21C20.5 19.5 22 17 22 14C22 8 16 2 16 2Z" fill="#FF6A1A"/>
  <path d="M16 21.5C16 21.5 12 19 12 22.5C12 25.5 14 28 16 29C18 28 20 25.5 20 22.5C20 19 16 21.5 16 21.5Z" fill="#FF8C42"/>
  <path d="M16 2C16 2 13 7 13 11C13 12.5 13.5 13.5 14 14C13.8 12.5 14.5 11 15.5 10C15.3 12 16 13.5 16 14C16 14 17.3 12 16.8 10C17.8 11.2 18.2 12.8 18 14C18.5 13.3 19 12.2 19 11C19 7 16 2 16 2Z" fill="#FFAA44" opacity="0.7"/>
</svg>
